<svg width="17.666626" height="17.506104" viewBox="0 0 17.6666 17.5061" fill="none" xmlns="http://www.w3.org/2000/svg" xmlns:xlink="http://www.w3.org/1999/xlink">
	<desc>
			Created with Pixso.
	</desc>
	<defs/>
	<path id="Icon" d="M0.83 0.83L2.74 0.83L3.64 4.17L5.84 12.29L15.4 11.1L16.83 4.17L3.64 4.17M7.58 16.67C6.89 16.67 6.33 16.11 6.33 15.42C6.33 14.73 6.89 14.17 7.58 14.17C8.27 14.17 8.83 14.73 8.83 15.42C8.83 16.11 8.27 16.67 7.58 16.67ZM14.25 16.67C13.55 16.67 13 16.11 13 15.42C13 14.73 13.55 14.17 14.25 14.17C14.94 14.17 15.5 14.73 15.5 15.42C15.5 16.11 14.94 16.67 14.25 16.67Z" stroke="#FFFFFF" stroke-opacity="1.000000" stroke-width="1.666667" stroke-linecap="round"/>
</svg>
