<svg width="20.000000" height="20.000000" viewBox="0 0 20 20" fill="none" xmlns="http://www.w3.org/2000/svg" xmlns:xlink="http://www.w3.org/1999/xlink">
	<desc>
			Created with Pixso.
	</desc>
	<defs/>
	<path id="Icon" d="M2 2.49L3.91 2.49L4.81 5.83L7.01 13.95L16.56 12.76L18 5.83L4.81 5.83M8.75 18.33C8.05 18.33 7.5 17.77 7.5 17.08C7.5 16.39 8.05 15.83 8.75 15.83C9.44 15.83 10 16.39 10 17.08C10 17.77 9.44 18.33 8.75 18.33ZM15.41 18.33C14.72 18.33 14.16 17.77 14.16 17.08C14.16 16.39 14.72 15.83 15.41 15.83C16.1 15.83 16.66 16.39 16.66 17.08C16.66 17.77 16.1 18.33 15.41 18.33Z" stroke="#3B944E" stroke-opacity="1.000000" stroke-width="1.666667" stroke-linecap="round"/>
</svg>
