<svg width="117.935059" height="107.210144" viewBox="0 0 117.935 107.21" fill="none" xmlns="http://www.w3.org/2000/svg" xmlns:xlink="http://www.w3.org/1999/xlink">
	<desc>
			Created with Pixso.
	</desc>
	<defs/>
	<path id="Vector" d="M79.45 38.68C71.08 38.68 62.56 38.34 54.59 36.12C46.77 33.95 39.59 29.74 33.19 24.87C29 21.7 25.19 19.17 19.75 19.55C14.42 19.83 9.33 21.82 5.23 25.22C-1.69 31.28 -0.65 42.51 2.12 50.37C6.28 62.24 18.94 70.51 29.7 75.86C42.13 82.07 55.79 85.68 69.48 87.75C81.48 89.58 96.9 90.9 107.3 83.07C116.85 75.86 119.47 59.42 117.13 48.32C116.56 45.04 114.81 42.08 112.22 40C105.51 35.09 95.5 38.37 87.96 38.53C85.16 38.59 82.31 38.66 79.45 38.68Z" fill="#F2F2F2" fill-opacity="1.000000" fill-rule="nonzero"/>
	<path id="Vector" d="M96.08 104.92C96.08 106.18 79.64 107.21 59.37 107.21C39.09 107.21 22.66 106.18 22.66 104.92C22.66 103.65 39.09 102.63 59.37 102.63C79.64 102.63 96.08 103.65 96.08 104.92Z" fill="#F2F2F2" fill-opacity="1.000000" fill-rule="evenodd"/>
	<path id="Vector" d="M7.57 16.62L20.57 15.53C22.19 15.38 23.81 15.8 25.16 16.71C26.51 17.62 27.5 18.97 27.98 20.53L40.44 62.23L38 66.6C37.37 67.72 37.06 69 37.1 70.28C37.14 71.57 37.53 72.82 38.23 73.91C38.93 74.99 39.9 75.87 41.06 76.44C42.21 77.01 43.5 77.26 44.79 77.16L94.69 72.92" stroke="#BABABA" stroke-opacity="1.000000" stroke-width="1.000000" stroke-linejoin="round" stroke-linecap="round"/>
	<path id="Vector" d="M29.84 26.86L87.84 21.93C88.41 21.89 88.98 21.97 89.52 22.17C90.05 22.37 90.54 22.7 90.93 23.11C91.33 23.53 91.62 24.03 91.8 24.57C91.97 25.12 92.03 25.7 91.95 26.27L88.02 54.64C87.9 55.49 87.49 56.27 86.87 56.87C86.25 57.46 85.45 57.83 84.6 57.92L40.44 62.23L29.84 26.86Z" fill="#FFFFFF" fill-opacity="1.000000" fill-rule="nonzero"/>
	<path id="Vector" d="M87.84 21.93C88.41 21.89 88.98 21.97 89.52 22.17C90.05 22.37 90.54 22.7 90.93 23.11C91.33 23.53 91.62 24.03 91.8 24.57C91.97 25.12 92.03 25.7 91.95 26.27L88.02 54.64C87.9 55.49 87.49 56.27 86.87 56.87C86.25 57.46 85.45 57.83 84.6 57.92L40.44 62.23L29.84 26.86L87.84 21.93Z" stroke="#BABABA" stroke-opacity="1.000000" stroke-width="1.000000" stroke-linejoin="round"/>
	<path id="Vector" d="M50.34 86.72C52.94 86.72 55.05 84.61 55.05 82.01C55.05 79.4 52.94 77.3 50.34 77.3C47.74 77.3 45.63 79.4 45.63 82.01C45.63 84.61 47.74 86.72 50.34 86.72Z" fill="#FFFFFF" fill-opacity="1.000000" fill-rule="nonzero"/>
	<path id="Vector" d="M50.34 86.72C47.74 86.72 45.63 84.61 45.63 82.01C45.63 79.4 47.74 77.3 50.34 77.3C52.94 77.3 55.05 79.4 55.05 82.01C55.05 84.61 52.94 86.72 50.34 86.72Z" stroke="#BABABA" stroke-opacity="1.000000" stroke-width="1.000000" stroke-linejoin="round"/>
	<path id="Vector" d="M83.14 83.94C85.74 83.94 87.85 81.83 87.85 79.23C87.85 76.62 85.74 74.51 83.14 74.51C80.53 74.51 78.43 76.62 78.43 79.23C78.43 81.83 80.53 83.94 83.14 83.94Z" fill="#FFFFFF" fill-opacity="1.000000" fill-rule="nonzero"/>
	<path id="Vector" d="M83.14 83.94C80.53 83.94 78.43 81.83 78.43 79.23C78.43 76.62 80.53 74.51 83.14 74.51C85.74 74.51 87.85 76.62 87.85 79.23C87.85 81.83 85.74 83.94 83.14 83.94Z" stroke="#BABABA" stroke-opacity="1.000000" stroke-width="1.000000" stroke-linejoin="round"/>
	<path id="Vector" d="M5.6 15.44L17.86 14.4C18.92 14.31 19.86 15.1 19.95 16.16C20.04 17.22 19.25 18.16 18.19 18.25L5.93 19.29C4.87 19.38 3.94 18.59 3.84 17.53C3.75 16.46 4.54 15.53 5.6 15.44Z" fill="#D2D2D2" fill-opacity="1.000000" fill-rule="evenodd"/>
	<path id="Vector" d="M54.26 48.77C54.5 46.94 55.35 45.25 56.68 43.98C58.01 42.71 59.74 41.93 61.57 41.77C63.41 41.62 65.24 42.09 66.77 43.12C68.29 44.15 69.42 45.67 69.97 47.43" stroke="#BABABA" stroke-opacity="1.000000" stroke-width="1.000000" stroke-linejoin="round" stroke-linecap="round"/>
	<path id="Vector" d="M71.22 36.86C71.22 37.47 70.71 37.98 70.1 37.98C69.48 37.98 68.98 37.47 68.98 36.86C68.98 36.24 69.48 35.74 70.1 35.74C70.71 35.74 71.22 36.24 71.22 36.86Z" fill="#BABABA" fill-opacity="1.000000" fill-rule="evenodd"/>
	<path id="Vector" d="M53.47 38.36C53.47 38.97 52.96 39.48 52.35 39.48C51.73 39.48 51.23 38.97 51.23 38.36C51.23 37.74 51.73 37.24 52.35 37.24C52.96 37.24 53.47 37.74 53.47 38.36Z" fill="#BABABA" fill-opacity="1.000000" fill-rule="evenodd"/>
	<path id="Vector" d="M20.32 80.63L20.3 80.61C20.3 80.33 20.52 80.11 20.8 80.11C21.08 80.11 21.3 80.33 21.3 80.61L21.28 80.63L20.32 80.63ZM21.28 84.9L21.3 84.92C21.3 85.2 21.08 85.42 20.8 85.42C20.52 85.42 20.3 85.2 20.3 84.92L20.32 84.9L21.28 84.9Z" fill="#FFFFFF" fill-opacity="1.000000" fill-rule="nonzero"/>
	<path id="Vector" d="M20.8 80.61L20.8 84.92" stroke="#BABABA" stroke-opacity="1.000000" stroke-width="1.000000" stroke-linejoin="round" stroke-linecap="round"/>
	<path id="Vector" d="M18.67 83.25L18.65 83.27C18.37 83.27 18.15 83.05 18.15 82.77C18.15 82.49 18.37 82.27 18.65 82.27L18.67 82.29L18.67 83.25ZM22.93 82.29L22.95 82.27C23.23 82.27 23.45 82.49 23.45 82.77C23.45 83.05 23.23 83.27 22.95 83.27L22.93 83.25L22.93 82.29Z" fill="#FFFFFF" fill-opacity="1.000000" fill-rule="nonzero"/>
	<path id="Vector" d="M18.65 82.77L22.95 82.77" stroke="#BABABA" stroke-opacity="1.000000" stroke-width="1.000000" stroke-linejoin="round" stroke-linecap="round"/>
	<path id="Vector" d="M89.03 0.52L89.01 0.5C89.01 0.21 89.23 0 89.51 0C89.79 0 90.01 0.21 90.01 0.5L89.99 0.52L89.03 0.52ZM89.99 4.78L90.01 4.79C90.01 5.08 89.79 5.29 89.51 5.29C89.23 5.29 89.01 5.08 89.01 4.79L89.03 4.78L89.99 4.78Z" fill="#FFFFFF" fill-opacity="1.000000" fill-rule="nonzero"/>
	<path id="Vector" d="M89.51 0.5L89.51 4.79" stroke="#BABABA" stroke-opacity="1.000000" stroke-width="1.000000" stroke-linejoin="round" stroke-linecap="round"/>
	<path id="Vector" d="M87.38 3.13L87.36 3.15C87.08 3.15 86.86 2.93 86.86 2.65C86.86 2.37 87.08 2.15 87.36 2.15L87.38 2.17L87.38 3.13ZM91.64 2.17L91.66 2.15C91.94 2.15 92.16 2.37 92.16 2.65C92.16 2.93 91.94 3.15 91.66 3.15L91.64 3.13L91.64 2.17Z" fill="#FFFFFF" fill-opacity="1.000000" fill-rule="nonzero"/>
	<path id="Vector" d="M87.36 2.65L91.66 2.65" stroke="#BABABA" stroke-opacity="1.000000" stroke-width="1.000000" stroke-linejoin="round" stroke-linecap="round"/>
	<path id="Vector" d="M38.12 13.37L38.1 13.35C38.1 13.07 38.32 12.85 38.6 12.85C38.88 12.85 39.1 13.07 39.1 13.35L39.08 13.37L38.12 13.37ZM39.08 17.63L39.1 17.65C39.1 17.93 38.88 18.15 38.6 18.15C38.32 18.15 38.1 17.93 38.1 17.65L38.12 17.63L39.08 17.63Z" fill="#FFFFFF" fill-opacity="1.000000" fill-rule="nonzero"/>
	<path id="Vector" d="M38.6 13.35L38.6 17.65" stroke="#BABABA" stroke-opacity="1.000000" stroke-width="1.000000" stroke-linejoin="round" stroke-linecap="round"/>
	<path id="Vector" d="M36.46 15.98L36.44 16C36.16 16 35.94 15.78 35.94 15.5C35.94 15.22 36.16 15 36.44 15L36.46 15.02L36.46 15.98ZM40.73 15.02L40.75 15C41.03 15 41.25 15.22 41.25 15.5C41.25 15.78 41.03 16 40.75 16L40.73 15.98L40.73 15.02Z" fill="#FFFFFF" fill-opacity="1.000000" fill-rule="nonzero"/>
	<path id="Vector" d="M36.44 15.5L40.75 15.5" stroke="#BABABA" stroke-opacity="1.000000" stroke-width="1.000000" stroke-linejoin="round" stroke-linecap="round"/>
	<path id="Vector" d="M100.24 29.15C100.8 29.15 101.26 28.7 101.26 28.13C101.26 27.57 100.8 27.11 100.24 27.11C99.67 27.11 99.22 27.57 99.22 28.13C99.22 28.7 99.67 29.15 100.24 29.15Z" fill="#FFFFFF" fill-opacity="1.000000" fill-rule="nonzero"/>
	<path id="Vector" d="M100.24 29.15C99.67 29.15 99.22 28.7 99.22 28.13C99.22 27.57 99.67 27.11 100.24 27.11C100.8 27.11 101.26 27.57 101.26 28.13C101.26 28.7 100.8 29.15 100.24 29.15Z" stroke="#BABABA" stroke-opacity="1.000000" stroke-width="1.000000" stroke-linejoin="round"/>
	<path id="Vector" d="M63.1 19.01C63.1 19.55 62.66 19.99 62.12 19.99C61.58 19.99 61.14 19.55 61.14 19.01C61.14 18.46 61.58 18.03 62.12 18.03C62.66 18.03 63.1 18.46 63.1 19.01Z" fill="#CFCFCF" fill-opacity="1.000000" fill-rule="evenodd"/>
	<path id="Vector" d="M69.68 90.13C69.68 90.67 69.24 91.11 68.7 91.11C68.15 91.11 67.72 90.67 67.72 90.13C67.72 89.58 68.15 89.15 68.7 89.15C69.24 89.15 69.68 89.58 69.68 90.13Z" fill="#CFCFCF" fill-opacity="1.000000" fill-rule="evenodd"/>
</svg>
