<svg width="80.000000" height="33.000000" viewBox="0 0 80 33" fill="none" xmlns="http://www.w3.org/2000/svg" xmlns:xlink="http://www.w3.org/1999/xlink">
	<desc>
			Created with Pixso.
	</desc>
	<defs/>
	<rect id="shop" rx="16.000000" width="79.000000" height="32.000000" transform="translate(0.500000 0.500000)" fill="#54B46A" fill-opacity="1.000000"/>
	<path id="SHOP" d="M21.21 11.6Q21.47 12.01 21.53 12.54L23.64 12.54C23.62 11.76 23.4 11.07 22.96 10.47C22.53 9.86 21.93 9.39 21.17 9.04C20.42 8.7 19.55 8.52 18.56 8.52Q17.1 8.52 15.94 9.05C15.16 9.39 14.54 9.88 14.09 10.5Q13.89 10.78 13.75 11.08Q13.41 11.81 13.41 12.7Q13.41 13.69 13.84 14.43Q14.07 14.82 14.42 15.14C15.11 15.76 16.03 16.22 17.19 16.54L18.91 17.01C19.43 17.15 19.9 17.31 20.31 17.49C20.73 17.67 21.06 17.89 21.3 18.17C21.55 18.44 21.67 18.8 21.67 19.23C21.67 19.7 21.53 20.11 21.25 20.47C20.97 20.82 20.59 21.09 20.1 21.29C19.62 21.49 19.06 21.58 18.44 21.58Q17.6 21.58 16.89 21.34C16.42 21.17 16.03 20.91 15.73 20.56Q15.66 20.48 15.6 20.39Q15.27 19.91 15.22 19.25L13.02 19.25Q13.08 20.38 13.59 21.25Q13.67 21.39 13.76 21.52Q13.86 21.65 13.96 21.77Q14.6 22.54 15.63 22.99C16.43 23.34 17.37 23.51 18.46 23.51Q20.16 23.51 21.36 22.96C22.17 22.59 22.78 22.08 23.2 21.44C23.63 20.8 23.84 20.07 23.84 19.25C23.84 18.59 23.71 18.03 23.45 17.56C23.2 17.1 22.86 16.7 22.44 16.39C22.03 16.07 21.57 15.81 21.09 15.62C20.6 15.42 20.12 15.27 19.66 15.16L18.24 14.79Q17.81 14.68 17.35 14.52Q16.89 14.35 16.48 14.1Q16.18 13.9 15.96 13.63Q15.89 13.55 15.84 13.47Q15.82 13.44 15.81 13.42Q15.6 13.06 15.6 12.57Q15.6 12.21 15.71 11.9Q15.8 11.67 15.95 11.47C16.19 11.14 16.53 10.89 16.97 10.7C17.4 10.51 17.92 10.42 18.51 10.42Q19.76 10.42 20.59 10.98Q20.98 11.24 21.21 11.6ZM53.09 20C53.66 18.88 53.94 17.55 53.94 16C53.94 14.44 53.66 13.11 53.09 12C52.52 10.88 51.74 10.02 50.75 9.43Q50.43 9.23 50.08 9.07Q48.86 8.52 47.39 8.52C46.14 8.52 45.01 8.82 44.02 9.43C43.04 10.02 42.26 10.88 41.69 12C41.12 13.11 40.84 14.44 40.84 16Q40.84 18.32 41.69 19.99C42.26 21.11 43.04 21.97 44.02 22.57C45.01 23.17 46.14 23.47 47.39 23.47Q48.88 23.47 50.11 22.91Q50.44 22.76 50.75 22.57C51.74 21.97 52.52 21.11 53.09 20ZM26.46 8.72L26.46 23.27L28.66 23.27L28.66 16.93L35.91 16.93L35.91 23.27L38.11 23.27L38.11 8.72L35.91 8.72L35.91 15.04L28.66 15.04L28.66 8.72L26.46 8.72ZM56.68 8.72L56.68 23.27L58.87 23.27L58.87 18.15L61.86 18.15C62.98 18.15 63.92 17.95 64.66 17.54Q65.45 17.1 65.96 16.44Q66.17 16.16 66.34 15.85Q66.37 15.78 66.41 15.7Q66.9 14.69 66.9 13.43C66.9 12.54 66.71 11.74 66.35 11.03C65.98 10.32 65.42 9.75 64.68 9.34Q63.56 8.72 61.86 8.72L56.68 8.72ZM58.87 16.29L61.66 16.29C62.37 16.29 62.95 16.17 63.4 15.92C63.84 15.67 64.17 15.33 64.38 14.9C64.59 14.47 64.69 13.98 64.69 13.43C64.69 12.88 64.59 12.39 64.38 11.97C64.17 11.54 63.84 11.21 63.39 10.97C62.95 10.73 62.36 10.6 61.63 10.6L58.87 10.6L58.87 16.29ZM51.19 13C51.58 13.81 51.77 14.81 51.77 16C51.77 17.18 51.58 18.18 51.19 18.99C50.82 19.8 50.29 20.42 49.63 20.84C48.97 21.26 48.23 21.46 47.39 21.46C46.56 21.46 45.81 21.26 45.15 20.84C44.49 20.42 43.97 19.8 43.59 18.99C43.21 18.18 43.02 17.18 43.02 16C43.02 14.81 43.21 13.81 43.59 13C43.97 12.19 44.49 11.58 45.15 11.16C45.81 10.74 46.56 10.53 47.39 10.53C48.23 10.53 48.97 10.74 49.63 11.16C50.29 11.58 50.82 12.19 51.19 13Z" fill="#FFFFFF" fill-opacity="1.000000" fill-rule="evenodd"/>
</svg>
